<svg width="1024" height="1024" viewBox="0 0 1024 1024" fill="none" xmlns="http://www.w3.org/2000/svg">
<circle opacity="0.8" cx="768" cy="246" r="75" stroke="#87E43A" stroke-width="45" stroke-linecap="round" stroke-linejoin="bevel"/>
<circle opacity="0.8" cx="512" cy="512" r="75" stroke="#87E43A" stroke-width="45" stroke-linecap="round" stroke-linejoin="bevel"/>
<path opacity="0.8" d="M176 171L251 246M326 321L251 246M251 246L176 321M251 246L326 171" stroke="#F54D62" stroke-width="45" stroke-linecap="round" stroke-linejoin="bevel"/>
<path opacity="0.8" d="M693 437L768 512M843 587L768 512M768 512L693 587M768 512L843 437" stroke="#F54D62" stroke-width="45" stroke-linecap="round" stroke-linejoin="bevel"/>
<path opacity="0.8" d="M176 696L251 771M326 846L251 771M251 771L176 846M251 771L326 696" stroke="#F54D62" stroke-width="45" stroke-linecap="round" stroke-linejoin="bevel"/>
<g opacity="0.75">
<path fill-rule="evenodd" clip-rule="evenodd" d="M388.113 137V385.693H137V386.693H388.113V637.306H137V638.306H388.113V887H389.113V638.306H639.725V887H640.725V638.306H887V637.306H640.725V386.693H887V385.693H640.725V137H639.725V385.693H389.113V137H388.113ZM639.725 637.306V386.693H389.113V637.306H639.725Z" fill="#C1C1C1"/>
<path d="M388.113 385.693V389.193H391.613V385.693H388.113ZM388.113 137V133.5H384.613V137H388.113ZM137 385.693V382.193H133.5V385.693H137ZM137 386.693H133.5V390.193H137V386.693ZM388.113 386.693H391.613V383.193H388.113V386.693ZM388.113 637.306V640.806H391.613V637.306H388.113ZM137 637.306V633.806H133.5V637.306H137ZM137 638.306H133.5V641.806H137V638.306ZM388.113 638.306H391.613V634.806H388.113V638.306ZM388.113 887H384.613V890.5H388.113V887ZM389.113 887V890.5H392.613V887H389.113ZM389.113 638.306V634.806H385.613V638.306H389.113ZM639.725 638.306H643.225V634.806H639.725V638.306ZM639.725 887H636.225V890.5H639.725V887ZM640.725 887V890.5H644.225V887H640.725ZM640.725 638.306V634.806H637.225V638.306H640.725ZM887 638.306V641.806H890.5V638.306H887ZM887 637.306H890.5V633.806H887V637.306ZM640.725 637.306H637.225V640.806H640.725V637.306ZM640.725 386.693V383.193H637.225V386.693H640.725ZM887 386.693V390.193H890.5V386.693H887ZM887 385.693H890.5V382.193H887V385.693ZM640.725 385.693H637.225V389.193H640.725V385.693ZM640.725 137H644.225V133.5H640.725V137ZM639.725 137V133.5H636.225V137H639.725ZM639.725 385.693V389.193H643.225V385.693H639.725ZM389.113 385.693H385.613V389.193H389.113V385.693ZM389.113 137H392.613V133.5H389.113V137ZM639.725 637.306V640.806H643.225V637.306H639.725ZM639.725 386.693H643.225V383.193H639.725V386.693ZM389.113 386.693V383.193H385.613V386.693H389.113ZM389.113 637.306H385.613V640.806H389.113V637.306ZM391.613 385.693V137H384.613V385.693H391.613ZM137 389.193H388.113V382.193H137V389.193ZM140.5 386.693V385.693H133.5V386.693H140.5ZM388.113 383.193H137V390.193H388.113V383.193ZM391.613 637.306V386.693H384.613V637.306H391.613ZM137 640.806H388.113V633.806H137V640.806ZM140.5 638.306V637.306H133.5V638.306H140.5ZM388.113 634.806H137V641.806H388.113V634.806ZM391.613 887V638.306H384.613V887H391.613ZM389.113 883.5H388.113V890.5H389.113V883.5ZM385.613 638.306V887H392.613V638.306H385.613ZM639.725 634.806H389.113V641.806H639.725V634.806ZM643.225 887V638.306H636.225V887H643.225ZM640.725 883.5H639.725V890.5H640.725V883.5ZM637.225 638.306V887H644.225V638.306H637.225ZM887 634.806H640.725V641.806H887V634.806ZM883.5 637.306V638.306H890.5V637.306H883.5ZM640.725 640.806H887V633.806H640.725V640.806ZM637.225 386.693V637.306H644.225V386.693H637.225ZM887 383.193H640.725V390.193H887V383.193ZM883.5 385.693V386.693H890.5V385.693H883.5ZM640.725 389.193H887V382.193H640.725V389.193ZM637.225 137V385.693H644.225V137H637.225ZM639.725 140.5H640.725V133.5H639.725V140.5ZM643.225 385.693V137H636.225V385.693H643.225ZM389.113 389.193H639.725V382.193H389.113V389.193ZM385.613 137V385.693H392.613V137H385.613ZM388.113 140.5H389.113V133.5H388.113V140.5ZM643.225 637.306V386.693H636.225V637.306H643.225ZM639.725 383.193H389.113V390.193H639.725V383.193ZM385.613 386.693V637.306H392.613V386.693H385.613ZM389.113 640.806H639.725V633.806H389.113V640.806Z" fill="#C1C1C1"/>
</g>
</svg>
